# xmcd
#
# Track frame offsets:
#	150
#	13150
#	29758
#	42352
#	64308
#	79667
#	93063
#	110239
#	122489
#	135648
#	151858
#	163226
#	179088
#	192228
#	206590
#	219950
#	235535
#	246974
#
# Disc length: 3618 seconds
#
# Revision: 1
# Processed by: cddbd v1.5.1PL0 Copyright (c) Steve Scherf et al.
# Submitted via: audiograbber 1.82.02
#
DISCID=fc0e2012
DTITLE=Arne Benoni - If I Live To Be A 100
DYEAR=2003
DGENRE=Country
TTITLE0=If I Live To Be A Hundred
TTITLE1=As For Me (Feat. Dottie West)
TTITLE2=One Night In Dallas
TTITLE3=Faithful As The Sun
TTITLE4=Stand Back
TTITLE5=Fool
TTITLE6=It's Just A Feeling
TTITLE7=She's Gone To Houston
TTITLE8=Southern Lady
TTITLE9=Angel Of Mercy
TTITLE10=If It Wasn't For Love
TTITLE11=Even If I Do (Feat. Lori Brooks)
TTITLE12=Easy Street
TTITLE13=For Crying Out Loud
TTITLE14=Here And Now
TTITLE15=Turn It Around
TTITLE16=By The Year 2050
TTITLE17=Jim Reeves Medley (He'll Have To Go, I Love You Because, I Won't Forge
TTITLE17=t You, Adios Amigo)
EXTD=
EXTT0=
EXTT1=
EXTT2=
EXTT3=
EXTT4=
EXTT5=
EXTT6=
EXTT7=
EXTT8=
EXTT9=
EXTT10=
EXTT11=
EXTT12=
EXTT13=
EXTT14=
EXTT15=
EXTT16=
EXTT17=
PLAYORDER=
